<mxfile host="app.diagrams.net" agent="Mozilla/5.0 (Windows NT 10.0; Win64; x64) AppleWebKit/537.36 (KHTML, like Gecko) Chrome/130.0.0.0 Safari/537.36" version="24.8.6">
  <diagram id="6I0OCvxSQrVGMHxT2VVA" name="Page-1">
    <mxGraphModel grid="0" page="1" gridSize="10" guides="1" tooltips="1" connect="1" arrows="1" fold="1" pageScale="1" pageWidth="1169" pageHeight="827" math="0" shadow="0">
      <root>
        <mxCell id="0" />
        <mxCell id="1" parent="0" />
        <mxCell id="SJkUcEk1vU3XVgGrH5s5-5" value="Business &lt;br&gt;App Logic" style="rounded=0;whiteSpace=wrap;html=1;align=left;verticalAlign=top;spacingLeft=5;fontStyle=1" vertex="1" parent="1">
          <mxGeometry x="178" y="249" width="920" height="329" as="geometry" />
        </mxCell>
        <mxCell id="E6JfSVjUE2MAYljZs4FM-1" value="Persistent Data" style="rounded=0;whiteSpace=wrap;html=1;align=left;verticalAlign=top;spacingLeft=5;fontStyle=1" vertex="1" parent="1">
          <mxGeometry x="178" y="768.25" width="920" height="124" as="geometry" />
        </mxCell>
        <mxCell id="SJkUcEk1vU3XVgGrH5s5-1" value="Presentation" style="rounded=0;whiteSpace=wrap;html=1;align=left;verticalAlign=top;spacingLeft=5;fontStyle=1" vertex="1" parent="1">
          <mxGeometry x="178" y="68" width="920" height="154" as="geometry" />
        </mxCell>
        <mxCell id="SJkUcEk1vU3XVgGrH5s5-3" value="Business Objects" style="rounded=0;whiteSpace=wrap;html=1;align=left;verticalAlign=top;spacingLeft=5;fontStyle=1" vertex="1" parent="1">
          <mxGeometry x="180" y="606" width="920" height="128" as="geometry" />
        </mxCell>
        <mxCell id="SJkUcEk1vU3XVgGrH5s5-7" value="&lt;span style=&quot;&quot;&gt;&lt;b&gt;SQLite&lt;br&gt;Database&lt;/b&gt;&lt;/span&gt;" style="shape=datastore;whiteSpace=wrap;html=1;aspect=fixed;fontStyle=0;fillColor=#f5f5f5;fontColor=#333333;strokeColor=#666666;" vertex="1" parent="1">
          <mxGeometry x="573.25" y="792.5" width="73" height="73" as="geometry" />
        </mxCell>
        <mxCell id="SJkUcEk1vU3XVgGrH5s5-14" value="Boundary Classes" style="shape=umlBoundary;whiteSpace=wrap;html=1;aspect=fixed;fontStyle=1;fillColor=#f5f5f5;fontColor=#333333;strokeColor=#666666;" vertex="1" parent="1">
          <mxGeometry x="49" y="109.75" width="88.13" height="70.5" as="geometry" />
        </mxCell>
        <mxCell id="SJkUcEk1vU3XVgGrH5s5-15" value="Control Classes" style="ellipse;shape=umlControl;whiteSpace=wrap;html=1;fontStyle=1;fillColor=#f5f5f5;fontColor=#333333;strokeColor=#666666;" vertex="1" parent="1">
          <mxGeometry x="67.13" y="371.5" width="70" height="80" as="geometry" />
        </mxCell>
        <mxCell id="SJkUcEk1vU3XVgGrH5s5-17" value="Entity Classes" style="ellipse;shape=umlEntity;whiteSpace=wrap;html=1;aspect=fixed;fontStyle=1;fillColor=#f5f5f5;fontColor=#333333;strokeColor=#666666;" vertex="1" parent="1">
          <mxGeometry x="73.13" y="638" width="64" height="64" as="geometry" />
        </mxCell>
        <mxCell id="SJkUcEk1vU3XVgGrH5s5-72" style="edgeStyle=orthogonalEdgeStyle;rounded=0;orthogonalLoop=1;jettySize=auto;html=1;exitX=0.5;exitY=1;exitDx=0;exitDy=0;entryX=0.5;entryY=0;entryDx=0;entryDy=0;dashed=1;endArrow=open;endFill=0;fillColor=#ffe6cc;strokeColor=#d79b00;strokeWidth=2;" edge="1" parent="1" source="SJkUcEk1vU3XVgGrH5s5-31" target="SJkUcEk1vU3XVgGrH5s5-39">
          <mxGeometry relative="1" as="geometry">
            <Array as="points">
              <mxPoint x="333" y="204" />
              <mxPoint x="332" y="367" />
            </Array>
          </mxGeometry>
        </mxCell>
        <mxCell id="SJkUcEk1vU3XVgGrH5s5-30" value="RegisterUI" style="rounded=0;whiteSpace=wrap;html=1;fillColor=#ffe6cc;strokeColor=#d79b00;fontStyle=1" vertex="1" parent="1">
          <mxGeometry x="192" y="139" width="88" height="30" as="geometry" />
        </mxCell>
        <mxCell id="SJkUcEk1vU3XVgGrH5s5-62" style="edgeStyle=orthogonalEdgeStyle;rounded=0;orthogonalLoop=1;jettySize=auto;html=1;exitX=0.5;exitY=1;exitDx=0;exitDy=0;endArrow=open;endFill=0;dashed=1;fillColor=#ffe6cc;strokeColor=#d79b00;strokeWidth=2;entryX=0.5;entryY=0;entryDx=0;entryDy=0;" edge="1" parent="1" source="SJkUcEk1vU3XVgGrH5s5-30" target="eIPMMocaVLbPbnjPdxqe-20">
          <mxGeometry relative="1" as="geometry">
            <mxPoint x="119" y="222" as="targetPoint" />
            <Array as="points">
              <mxPoint x="236" y="196" />
              <mxPoint x="236" y="196" />
            </Array>
            <mxPoint x="153.5" y="186" as="sourcePoint" />
          </mxGeometry>
        </mxCell>
        <mxCell id="SJkUcEk1vU3XVgGrH5s5-31" value="LoginUI" style="rounded=0;whiteSpace=wrap;html=1;fillColor=#ffe6cc;strokeColor=#d79b00;fontStyle=1" vertex="1" parent="1">
          <mxGeometry x="296" y="139" width="73" height="30" as="geometry" />
        </mxCell>
        <mxCell id="SJkUcEk1vU3XVgGrH5s5-69" style="edgeStyle=orthogonalEdgeStyle;rounded=0;orthogonalLoop=1;jettySize=auto;html=1;exitX=0.5;exitY=1;exitDx=0;exitDy=0;entryX=0.5;entryY=0;entryDx=0;entryDy=0;dashed=1;endArrow=open;endFill=0;strokeWidth=2;fillColor=#d5e8d4;strokeColor=#82b366;" edge="1" parent="1" source="SJkUcEk1vU3XVgGrH5s5-32" target="SJkUcEk1vU3XVgGrH5s5-36">
          <mxGeometry relative="1" as="geometry">
            <mxPoint x="871.71" y="169" as="sourcePoint" />
            <mxPoint x="871.7719999999999" y="302.41999999999996" as="targetPoint" />
            <Array as="points" />
          </mxGeometry>
        </mxCell>
        <mxCell id="SJkUcEk1vU3XVgGrH5s5-32" value="DeviceManagerUI" style="rounded=0;whiteSpace=wrap;html=1;fillColor=#d5e8d4;strokeColor=#82b366;strokeWidth=2;fontStyle=1" vertex="1" parent="1">
          <mxGeometry x="861" y="139" width="119" height="30" as="geometry" />
        </mxCell>
        <mxCell id="eIPMMocaVLbPbnjPdxqe-23" style="edgeStyle=orthogonalEdgeStyle;rounded=0;orthogonalLoop=1;jettySize=auto;html=1;exitX=0.5;exitY=1;exitDx=0;exitDy=0;entryX=0.5;entryY=0;entryDx=0;entryDy=0;strokeWidth=2;fillColor=#ffe6cc;strokeColor=#d79b00;dashed=1;endArrow=open;endFill=0;" edge="1" parent="1" source="SJkUcEk1vU3XVgGrH5s5-33" target="SJkUcEk1vU3XVgGrH5s5-34">
          <mxGeometry relative="1" as="geometry" />
        </mxCell>
        <mxCell id="SJkUcEk1vU3XVgGrH5s5-33" value="UpdateDetailsUI" style="rounded=0;whiteSpace=wrap;html=1;fillColor=#ffe6cc;strokeColor=#d79b00;fontStyle=1" vertex="1" parent="1">
          <mxGeometry x="384" y="139" width="121" height="30" as="geometry" />
        </mxCell>
        <mxCell id="eIPMMocaVLbPbnjPdxqe-14" style="rounded=0;orthogonalLoop=1;jettySize=auto;html=1;exitX=0.75;exitY=1;exitDx=0;exitDy=0;entryX=0.25;entryY=0;entryDx=0;entryDy=0;dashed=1;endArrow=open;endFill=0;" edge="1" parent="1" source="SJkUcEk1vU3XVgGrH5s5-34" target="eIPMMocaVLbPbnjPdxqe-1">
          <mxGeometry relative="1" as="geometry" />
        </mxCell>
        <mxCell id="eIPMMocaVLbPbnjPdxqe-16" style="edgeStyle=orthogonalEdgeStyle;rounded=0;orthogonalLoop=1;jettySize=auto;html=1;exitX=0.5;exitY=1;exitDx=0;exitDy=0;dashed=1;strokeWidth=2;fillColor=#dae8fc;strokeColor=#6c8ebf;endArrow=none;endFill=0;startArrow=open;startFill=0;entryX=0;entryY=0.5;entryDx=0;entryDy=0;" edge="1" parent="1" source="SJkUcEk1vU3XVgGrH5s5-34" target="SJkUcEk1vU3XVgGrH5s5-35">
          <mxGeometry relative="1" as="geometry">
            <mxPoint x="528" y="317" as="targetPoint" />
            <mxPoint x="494.5099999999999" y="290.02000000000004" as="sourcePoint" />
            <Array as="points">
              <mxPoint x="445" y="358" />
              <mxPoint x="445" y="358" />
              <mxPoint x="445" y="391" />
            </Array>
          </mxGeometry>
        </mxCell>
        <mxCell id="SJkUcEk1vU3XVgGrH5s5-34" value="UpdateDetails&lt;br&gt;Activity" style="rounded=0;whiteSpace=wrap;html=1;fillColor=#ffe6cc;strokeColor=#d79b00;fontStyle=1" vertex="1" parent="1">
          <mxGeometry x="393.5" y="269" width="102" height="43" as="geometry" />
        </mxCell>
        <mxCell id="eIPMMocaVLbPbnjPdxqe-24" style="edgeStyle=orthogonalEdgeStyle;rounded=0;orthogonalLoop=1;jettySize=auto;html=1;exitX=1;exitY=0.5;exitDx=0;exitDy=0;fillColor=#dae8fc;strokeColor=#6c8ebf;strokeWidth=2;dashed=1;" edge="1" parent="1" source="SJkUcEk1vU3XVgGrH5s5-35" target="SJkUcEk1vU3XVgGrH5s5-36">
          <mxGeometry relative="1" as="geometry" />
        </mxCell>
        <mxCell id="eIPMMocaVLbPbnjPdxqe-31" style="edgeStyle=orthogonalEdgeStyle;rounded=0;orthogonalLoop=1;jettySize=auto;html=1;exitX=0.5;exitY=1;exitDx=0;exitDy=0;entryX=0.5;entryY=0;entryDx=0;entryDy=0;endArrow=open;endFill=0;dashed=1;" edge="1" parent="1" source="SJkUcEk1vU3XVgGrH5s5-35" target="eIPMMocaVLbPbnjPdxqe-1">
          <mxGeometry relative="1" as="geometry" />
        </mxCell>
        <mxCell id="eIPMMocaVLbPbnjPdxqe-39" style="edgeStyle=orthogonalEdgeStyle;rounded=0;orthogonalLoop=1;jettySize=auto;html=1;entryX=1;entryY=0.5;entryDx=0;entryDy=0;fillColor=#dae8fc;strokeColor=#6c8ebf;dashed=1;endArrow=open;endFill=0;strokeWidth=2;" edge="1" parent="1" target="SJkUcEk1vU3XVgGrH5s5-39">
          <mxGeometry relative="1" as="geometry">
            <mxPoint x="444" y="344" as="sourcePoint" />
          </mxGeometry>
        </mxCell>
        <mxCell id="SJkUcEk1vU3XVgGrH5s5-35" value="Dashboard&lt;br&gt;Activity" style="rounded=0;whiteSpace=wrap;html=1;fillColor=#dae8fc;strokeColor=#6c8ebf;fontStyle=1" vertex="1" parent="1">
          <mxGeometry x="564.36" y="368" width="90.76" height="46" as="geometry" />
        </mxCell>
        <mxCell id="eIPMMocaVLbPbnjPdxqe-25" style="rounded=0;orthogonalLoop=1;jettySize=auto;html=1;exitX=0.25;exitY=1;exitDx=0;exitDy=0;entryX=1;entryY=0;entryDx=0;entryDy=0;dashed=1;endArrow=open;endFill=0;" edge="1" parent="1" source="SJkUcEk1vU3XVgGrH5s5-36" target="eIPMMocaVLbPbnjPdxqe-1">
          <mxGeometry relative="1" as="geometry" />
        </mxCell>
        <mxCell id="eIPMMocaVLbPbnjPdxqe-46" style="edgeStyle=orthogonalEdgeStyle;rounded=0;orthogonalLoop=1;jettySize=auto;html=1;exitX=1;exitY=0.5;exitDx=0;exitDy=0;entryX=0;entryY=0.5;entryDx=0;entryDy=0;endArrow=open;endFill=0;fillColor=#d5e8d4;strokeColor=#82b366;strokeWidth=2;dashed=1;" edge="1" parent="1" source="SJkUcEk1vU3XVgGrH5s5-36" target="eIPMMocaVLbPbnjPdxqe-27">
          <mxGeometry relative="1" as="geometry" />
        </mxCell>
        <mxCell id="SJkUcEk1vU3XVgGrH5s5-36" value="DeviceManager&lt;br&gt;Activity" style="rounded=0;whiteSpace=wrap;html=1;fillColor=#d5e8d4;strokeColor=#82b366;strokeWidth=2;fontStyle=1" vertex="1" parent="1">
          <mxGeometry x="867.5" y="285" width="106" height="45" as="geometry" />
        </mxCell>
        <mxCell id="eIPMMocaVLbPbnjPdxqe-13" style="rounded=0;orthogonalLoop=1;jettySize=auto;html=1;exitX=0.5;exitY=1;exitDx=0;exitDy=0;entryX=0;entryY=0;entryDx=0;entryDy=0;dashed=1;endArrow=open;endFill=0;" edge="1" parent="1" source="SJkUcEk1vU3XVgGrH5s5-39" target="eIPMMocaVLbPbnjPdxqe-1">
          <mxGeometry relative="1" as="geometry" />
        </mxCell>
        <mxCell id="SJkUcEk1vU3XVgGrH5s5-39" value="Login&lt;br&gt;Activity" style="rounded=0;whiteSpace=wrap;html=1;fillColor=#ffe6cc;strokeColor=#d79b00;fontStyle=1" vertex="1" parent="1">
          <mxGeometry x="298.19" y="325" width="68.63" height="38" as="geometry" />
        </mxCell>
        <mxCell id="SJkUcEk1vU3XVgGrH5s5-42" value="Device" style="rounded=0;whiteSpace=wrap;html=1;fontStyle=1" vertex="1" parent="1">
          <mxGeometry x="700" y="655" width="56.5" height="30" as="geometry" />
        </mxCell>
        <mxCell id="eIPMMocaVLbPbnjPdxqe-5" style="edgeStyle=orthogonalEdgeStyle;rounded=0;orthogonalLoop=1;jettySize=auto;html=1;exitX=0.5;exitY=0;exitDx=0;exitDy=0;endArrow=none;endFill=0;dashed=1;startArrow=open;startFill=0;" edge="1" parent="1" source="SJkUcEk1vU3XVgGrH5s5-47">
          <mxGeometry relative="1" as="geometry">
            <mxPoint x="610" y="623" as="targetPoint" />
          </mxGeometry>
        </mxCell>
        <mxCell id="SJkUcEk1vU3XVgGrH5s5-47" value="User" style="rounded=0;whiteSpace=wrap;html=1;fontStyle=1" vertex="1" parent="1">
          <mxGeometry x="589.75" y="655" width="40" height="30" as="geometry" />
        </mxCell>
        <mxCell id="SJkUcEk1vU3XVgGrH5s5-51" style="edgeStyle=orthogonalEdgeStyle;rounded=0;orthogonalLoop=1;jettySize=auto;html=1;exitX=0.5;exitY=1;exitDx=0;exitDy=0;dashed=1;endArrow=open;endFill=0;strokeWidth=1;entryX=0.5;entryY=0;entryDx=0;entryDy=0;" edge="1" parent="1" source="SJkUcEk1vU3XVgGrH5s5-47" target="SJkUcEk1vU3XVgGrH5s5-7">
          <mxGeometry relative="1" as="geometry">
            <mxPoint x="614" y="661" as="targetPoint" />
            <Array as="points">
              <mxPoint x="610" y="701" />
              <mxPoint x="610" y="701" />
            </Array>
            <mxPoint x="721.5000000000002" y="684.9999999999998" as="sourcePoint" />
          </mxGeometry>
        </mxCell>
        <mxCell id="E6JfSVjUE2MAYljZs4FM-12" value="Entity Classes" style="ellipse;shape=umlEntity;whiteSpace=wrap;html=1;aspect=fixed;fontStyle=1;fillColor=#f5f5f5;fontColor=#333333;strokeColor=#666666;" vertex="1" parent="1">
          <mxGeometry x="73.13" y="797" width="64" height="64" as="geometry" />
        </mxCell>
        <mxCell id="tyzJKIOLWmkRlSTShE38-18" style="edgeStyle=orthogonalEdgeStyle;rounded=0;orthogonalLoop=1;jettySize=auto;html=1;exitX=0.5;exitY=1;exitDx=0;exitDy=0;entryX=0.5;entryY=0;entryDx=0;entryDy=0;dashed=1;fillColor=#f8cecc;strokeColor=#b85450;strokeWidth=2;endArrow=open;endFill=0;" edge="1" parent="1" source="tyzJKIOLWmkRlSTShE38-1" target="tyzJKIOLWmkRlSTShE38-17">
          <mxGeometry relative="1" as="geometry">
            <Array as="points">
              <mxPoint x="800.87" y="167" />
              <mxPoint x="800.87" y="364" />
            </Array>
          </mxGeometry>
        </mxCell>
        <mxCell id="tyzJKIOLWmkRlSTShE38-1" value="Admin&lt;br&gt;DashboardUI" style="rounded=0;whiteSpace=wrap;html=1;fillColor=#f8cecc;strokeColor=#b85450;fontStyle=1;" vertex="1" parent="1">
          <mxGeometry x="754.18" y="131.5" width="92.38" height="44" as="geometry" />
        </mxCell>
        <mxCell id="tyzJKIOLWmkRlSTShE38-7" value="Energy Market Authority Dataset" style="rounded=0;whiteSpace=wrap;html=1;fontStyle=1;strokeWidth=1;" vertex="1" parent="1">
          <mxGeometry x="398" y="808.5" width="127" height="43.5" as="geometry" />
        </mxCell>
        <mxCell id="tyzJKIOLWmkRlSTShE38-8" style="rounded=0;orthogonalLoop=1;jettySize=auto;html=1;exitX=0.5;exitY=0;exitDx=0;exitDy=0;entryX=0.25;entryY=1;entryDx=0;entryDy=0;dashed=1;strokeWidth=2;endArrow=open;endFill=0;" edge="1" parent="1" source="tyzJKIOLWmkRlSTShE38-7" target="eIPMMocaVLbPbnjPdxqe-35">
          <mxGeometry relative="1" as="geometry" />
        </mxCell>
        <mxCell id="eIPMMocaVLbPbnjPdxqe-44" style="rounded=0;orthogonalLoop=1;jettySize=auto;html=1;exitX=0.5;exitY=1;exitDx=0;exitDy=0;entryX=0.75;entryY=0;entryDx=0;entryDy=0;dashed=1;endArrow=open;endFill=0;" edge="1" parent="1" source="tyzJKIOLWmkRlSTShE38-17" target="eIPMMocaVLbPbnjPdxqe-1">
          <mxGeometry relative="1" as="geometry" />
        </mxCell>
        <mxCell id="tyzJKIOLWmkRlSTShE38-17" value="AdminDashboard&lt;br&gt;Activity" style="rounded=0;whiteSpace=wrap;html=1;fillColor=#f8cecc;strokeColor=#b85450;fontStyle=1;" vertex="1" parent="1">
          <mxGeometry x="745.8" y="285" width="109.13" height="45" as="geometry" />
        </mxCell>
        <mxCell id="eIPMMocaVLbPbnjPdxqe-1" value="DatabaseHelper" style="rounded=0;whiteSpace=wrap;html=1;fontStyle=1;strokeWidth=2;" vertex="1" parent="1">
          <mxGeometry x="557.62" y="529" width="104.25" height="30" as="geometry" />
        </mxCell>
        <mxCell id="eIPMMocaVLbPbnjPdxqe-2" style="edgeStyle=orthogonalEdgeStyle;rounded=0;orthogonalLoop=1;jettySize=auto;html=1;exitX=0.5;exitY=0;exitDx=0;exitDy=0;endArrow=none;endFill=0;dashed=1;entryX=0.5;entryY=1;entryDx=0;entryDy=0;startArrow=open;startFill=0;" edge="1" parent="1" source="SJkUcEk1vU3XVgGrH5s5-42" target="eIPMMocaVLbPbnjPdxqe-1">
          <mxGeometry relative="1" as="geometry">
            <mxPoint x="861" y="660" as="targetPoint" />
            <Array as="points">
              <mxPoint x="728" y="623" />
              <mxPoint x="610" y="623" />
            </Array>
            <mxPoint x="1045" y="632" as="sourcePoint" />
          </mxGeometry>
        </mxCell>
        <mxCell id="eIPMMocaVLbPbnjPdxqe-38" style="edgeStyle=orthogonalEdgeStyle;rounded=0;orthogonalLoop=1;jettySize=auto;html=1;exitX=0.5;exitY=1;exitDx=0;exitDy=0;entryX=0.5;entryY=0;entryDx=0;entryDy=0;strokeWidth=2;fillColor=#dae8fc;strokeColor=#6c8ebf;endArrow=open;endFill=0;dashed=1;" edge="1" parent="1" source="eIPMMocaVLbPbnjPdxqe-7" target="eIPMMocaVLbPbnjPdxqe-35">
          <mxGeometry relative="1" as="geometry" />
        </mxCell>
        <mxCell id="eIPMMocaVLbPbnjPdxqe-7" value="PowerUsage&lt;br&gt;FragmentUI" style="rounded=0;whiteSpace=wrap;html=1;fillColor=#dae8fc;strokeColor=#6c8ebf;strokeWidth=2;fontStyle=1" vertex="1" parent="1">
          <mxGeometry x="522" y="132.5" width="97" height="43" as="geometry" />
        </mxCell>
        <mxCell id="eIPMMocaVLbPbnjPdxqe-21" style="rounded=0;orthogonalLoop=1;jettySize=auto;html=1;exitX=0.5;exitY=1;exitDx=0;exitDy=0;entryX=0;entryY=0.5;entryDx=0;entryDy=0;startArrow=none;startFill=0;dashed=1;endArrow=open;endFill=0;" edge="1" parent="1" source="eIPMMocaVLbPbnjPdxqe-20" target="eIPMMocaVLbPbnjPdxqe-1">
          <mxGeometry relative="1" as="geometry" />
        </mxCell>
        <mxCell id="eIPMMocaVLbPbnjPdxqe-20" value="Register&lt;br&gt;Activity" style="rounded=0;whiteSpace=wrap;html=1;fillColor=#ffe6cc;strokeColor=#d79b00;fontStyle=1" vertex="1" parent="1">
          <mxGeometry x="199.25" y="324" width="73.5" height="40" as="geometry" />
        </mxCell>
        <mxCell id="eIPMMocaVLbPbnjPdxqe-22" style="edgeStyle=orthogonalEdgeStyle;rounded=0;orthogonalLoop=1;jettySize=auto;html=1;exitX=1;exitY=0.5;exitDx=0;exitDy=0;entryX=0;entryY=0.5;entryDx=0;entryDy=0;strokeWidth=2;endArrow=open;endFill=0;fillColor=#ffe6cc;strokeColor=#d79b00;dashed=1;" edge="1" parent="1" source="eIPMMocaVLbPbnjPdxqe-20" target="SJkUcEk1vU3XVgGrH5s5-39">
          <mxGeometry relative="1" as="geometry" />
        </mxCell>
        <mxCell id="eIPMMocaVLbPbnjPdxqe-29" style="edgeStyle=orthogonalEdgeStyle;rounded=0;orthogonalLoop=1;jettySize=auto;html=1;exitX=0.5;exitY=1;exitDx=0;exitDy=0;entryX=0.5;entryY=0;entryDx=0;entryDy=0;fillColor=#d5e8d4;strokeColor=#82b366;strokeWidth=2;dashed=1;endArrow=open;endFill=0;" edge="1" parent="1" source="eIPMMocaVLbPbnjPdxqe-26" target="eIPMMocaVLbPbnjPdxqe-27">
          <mxGeometry relative="1" as="geometry" />
        </mxCell>
        <mxCell id="eIPMMocaVLbPbnjPdxqe-26" value="AddDeviceUI" style="rounded=0;whiteSpace=wrap;html=1;fillColor=#d5e8d4;strokeColor=#82b366;strokeWidth=2;fontStyle=1" vertex="1" parent="1">
          <mxGeometry x="994" y="140" width="89" height="30" as="geometry" />
        </mxCell>
        <mxCell id="eIPMMocaVLbPbnjPdxqe-30" style="rounded=0;orthogonalLoop=1;jettySize=auto;html=1;exitX=0.5;exitY=1;exitDx=0;exitDy=0;entryX=1;entryY=0.5;entryDx=0;entryDy=0;dashed=1;endArrow=open;endFill=0;" edge="1" parent="1" source="eIPMMocaVLbPbnjPdxqe-27" target="eIPMMocaVLbPbnjPdxqe-1">
          <mxGeometry relative="1" as="geometry" />
        </mxCell>
        <mxCell id="eIPMMocaVLbPbnjPdxqe-27" value="AddDevice&lt;br&gt;Activity" style="rounded=0;whiteSpace=wrap;html=1;fillColor=#d5e8d4;strokeColor=#82b366;strokeWidth=2;fontStyle=1" vertex="1" parent="1">
          <mxGeometry x="997.31" y="285" width="82.37" height="45" as="geometry" />
        </mxCell>
        <mxCell id="eIPMMocaVLbPbnjPdxqe-37" style="edgeStyle=orthogonalEdgeStyle;rounded=0;orthogonalLoop=1;jettySize=auto;html=1;exitX=0.5;exitY=1;exitDx=0;exitDy=0;entryX=0.5;entryY=0;entryDx=0;entryDy=0;strokeWidth=2;fillColor=#dae8fc;strokeColor=#6c8ebf;endArrow=open;endFill=0;dashed=1;" edge="1" parent="1" source="eIPMMocaVLbPbnjPdxqe-32" target="eIPMMocaVLbPbnjPdxqe-36">
          <mxGeometry relative="1" as="geometry" />
        </mxCell>
        <mxCell id="eIPMMocaVLbPbnjPdxqe-32" value="BillFragmentUI" style="rounded=0;whiteSpace=wrap;html=1;fillColor=#dae8fc;strokeColor=#6c8ebf;strokeWidth=2;fontStyle=1" vertex="1" parent="1">
          <mxGeometry x="638" y="132.5" width="97" height="43" as="geometry" />
        </mxCell>
        <mxCell id="eIPMMocaVLbPbnjPdxqe-40" style="edgeStyle=orthogonalEdgeStyle;rounded=0;orthogonalLoop=1;jettySize=auto;html=1;exitX=0.5;exitY=1;exitDx=0;exitDy=0;entryX=0.5;entryY=0;entryDx=0;entryDy=0;fillColor=#dae8fc;strokeColor=#6c8ebf;strokeWidth=2;endArrow=open;endFill=0;dashed=1;" edge="1" parent="1" source="eIPMMocaVLbPbnjPdxqe-35" target="SJkUcEk1vU3XVgGrH5s5-35">
          <mxGeometry relative="1" as="geometry" />
        </mxCell>
        <mxCell id="eIPMMocaVLbPbnjPdxqe-35" value="PowerUsage&lt;br&gt;FragmentActivity" style="rounded=0;whiteSpace=wrap;html=1;fillColor=#dae8fc;strokeColor=#6c8ebf;strokeWidth=2;fontStyle=1" vertex="1" parent="1">
          <mxGeometry x="517" y="272" width="107" height="43" as="geometry" />
        </mxCell>
        <mxCell id="eIPMMocaVLbPbnjPdxqe-43" style="edgeStyle=orthogonalEdgeStyle;rounded=0;orthogonalLoop=1;jettySize=auto;html=1;exitX=0.5;exitY=1;exitDx=0;exitDy=0;fillColor=#dae8fc;strokeColor=#6c8ebf;dashed=1;endArrow=none;endFill=0;strokeWidth=2;" edge="1" parent="1" source="eIPMMocaVLbPbnjPdxqe-36">
          <mxGeometry relative="1" as="geometry">
            <mxPoint x="610.2083882176601" y="341.59355376487554" as="targetPoint" />
            <Array as="points">
              <mxPoint x="687" y="341" />
              <mxPoint x="630" y="341" />
            </Array>
          </mxGeometry>
        </mxCell>
        <mxCell id="eIPMMocaVLbPbnjPdxqe-36" value="BillFragment&lt;br&gt;Activity" style="rounded=0;whiteSpace=wrap;html=1;fillColor=#dae8fc;strokeColor=#6c8ebf;strokeWidth=2;fontStyle=1" vertex="1" parent="1">
          <mxGeometry x="638" y="272" width="97" height="43" as="geometry" />
        </mxCell>
        <mxCell id="eIPMMocaVLbPbnjPdxqe-45" style="rounded=0;orthogonalLoop=1;jettySize=auto;html=1;exitX=0.5;exitY=1;exitDx=0;exitDy=0;entryX=0.707;entryY=0.005;entryDx=0;entryDy=0;entryPerimeter=0;dashed=1;endArrow=open;endFill=0;" edge="1" parent="1" source="SJkUcEk1vU3XVgGrH5s5-42" target="SJkUcEk1vU3XVgGrH5s5-7">
          <mxGeometry relative="1" as="geometry" />
        </mxCell>
        <mxCell id="tyzJKIOLWmkRlSTShE38-4" value="APIs" style="rounded=0;whiteSpace=wrap;html=1;fontStyle=1;align=left;verticalAlign=top;spacingLeft=5;" vertex="1" parent="1">
          <mxGeometry x="811" y="606" width="289" height="128" as="geometry" />
        </mxCell>
        <mxCell id="tyzJKIOLWmkRlSTShE38-3" value="EmailAPI" style="rounded=0;whiteSpace=wrap;html=1;fontStyle=1;strokeWidth=2;" vertex="1" parent="1">
          <mxGeometry x="878" y="655" width="76" height="30" as="geometry" />
        </mxCell>
        <mxCell id="SJkUcEk1vU3XVgGrH5s5-40" value="SingStatsAPI" style="rounded=0;whiteSpace=wrap;html=1;fontStyle=1;strokeWidth=2;" vertex="1" parent="1">
          <mxGeometry x="973.5000000000001" y="655" width="101.5" height="30" as="geometry" />
        </mxCell>
        <mxCell id="tyzJKIOLWmkRlSTShE38-16" style="rounded=0;orthogonalLoop=1;jettySize=auto;html=1;exitX=0.5;exitY=0;exitDx=0;exitDy=0;entryX=1;entryY=1;entryDx=0;entryDy=0;dashed=1;strokeWidth=2;endArrow=open;endFill=0;" edge="1" parent="1" source="tyzJKIOLWmkRlSTShE38-3" target="SJkUcEk1vU3XVgGrH5s5-35">
          <mxGeometry relative="1" as="geometry">
            <mxPoint x="-77.97055999999998" y="341.00000000000006" as="targetPoint" />
          </mxGeometry>
        </mxCell>
        <mxCell id="RrNe6EXhw903W7bHsW2i-8" style="rounded=0;orthogonalLoop=1;jettySize=auto;html=1;exitX=0.5;exitY=0;exitDx=0;exitDy=0;entryX=0.75;entryY=1;entryDx=0;entryDy=0;endArrow=open;endFill=0;dashed=1;strokeWidth=2;" edge="1" parent="1" source="SJkUcEk1vU3XVgGrH5s5-40" target="eIPMMocaVLbPbnjPdxqe-36">
          <mxGeometry relative="1" as="geometry">
            <mxPoint x="829" y="434" as="targetPoint" />
          </mxGeometry>
        </mxCell>
      </root>
    </mxGraphModel>
  </diagram>
</mxfile>
